<svg width="16" height="16" viewBox="0 0 16 16" fill="none" xmlns="http://www.w3.org/2000/svg">
<path d="M13 2.125H11.375V1.5C11.375 1.40054 11.3355 1.30516 11.2652 1.23483C11.1948 1.16451 11.0995 1.125 11 1.125C10.9005 1.125 10.8052 1.16451 10.7348 1.23483C10.6645 1.30516 10.625 1.40054 10.625 1.5V2.125H5.375V1.5C5.375 1.40054 5.33549 1.30516 5.26516 1.23483C5.19484 1.16451 5.09946 1.125 5 1.125C4.90054 1.125 4.80516 1.16451 4.73484 1.23483C4.66451 1.30516 4.625 1.40054 4.625 1.5V2.125H3C2.76794 2.125 2.54538 2.21719 2.38128 2.38128C2.21719 2.54538 2.125 2.76794 2.125 3V13C2.125 13.2321 2.21719 13.4546 2.38128 13.6187C2.54538 13.7828 2.76794 13.875 3 13.875H13C13.2321 13.875 13.4546 13.7828 13.6187 13.6187C13.7828 13.4546 13.875 13.2321 13.875 13V3C13.875 2.76794 13.7828 2.54538 13.6187 2.38128C13.4546 2.21719 13.2321 2.125 13 2.125ZM3 2.875H4.625V3.5C4.625 3.59946 4.66451 3.69484 4.73484 3.76517C4.80516 3.83549 4.90054 3.875 5 3.875C5.09946 3.875 5.19484 3.83549 5.26516 3.76517C5.33549 3.69484 5.375 3.59946 5.375 3.5V2.875H10.625V3.5C10.625 3.59946 10.6645 3.69484 10.7348 3.76517C10.8052 3.83549 10.9005 3.875 11 3.875C11.0995 3.875 11.1948 3.83549 11.2652 3.76517C11.3355 3.69484 11.375 3.59946 11.375 3.5V2.875H13C13.0332 2.875 13.0649 2.88817 13.0884 2.91161C13.1118 2.93505 13.125 2.96685 13.125 3V5.125H2.875V3C2.875 2.96685 2.88817 2.93505 2.91161 2.91161C2.93505 2.88817 2.96685 2.875 3 2.875ZM13 13.125H3C2.96685 13.125 2.93505 13.1118 2.91161 13.0884C2.88817 13.0649 2.875 13.0332 2.875 13V5.875H13.125V13C13.125 13.0332 13.1118 13.0649 13.0884 13.0884C13.0649 13.1118 13.0332 13.125 13 13.125ZM10.525 7.74375C10.5917 7.81731 10.627 7.91397 10.6235 8.01318C10.62 8.11239 10.5779 8.20632 10.5063 8.275L7.5875 11.025C7.55355 11.0578 7.51341 11.0836 7.46942 11.1007C7.42542 11.1179 7.37846 11.1261 7.33125 11.125C7.2367 11.123 7.14591 11.0876 7.075 11.025L5.49375 9.525C5.42082 9.45704 5.37787 9.36289 5.37435 9.26326C5.37083 9.16363 5.40704 9.06668 5.475 8.99375C5.54296 8.92081 5.63711 8.87787 5.73674 8.87435C5.83637 8.87083 5.93332 8.90704 6.00625 8.975L7.33125 10.2312L9.99375 7.725C10.0673 7.65835 10.164 7.62302 10.2632 7.62652C10.3624 7.63002 10.4563 7.67208 10.525 7.74375Z" fill="#C4BCA5"/>
</svg>
