<svg width="16" height="16" viewBox="0 0 16 16" fill="none" xmlns="http://www.w3.org/2000/svg">
<path d="M15.5 15.5L11.2143 11.2143M6.92857 13.3571C6.08436 13.3571 5.24841 13.1909 4.46846 12.8678C3.68851 12.5447 2.97983 12.0712 2.38288 11.4743C1.78594 10.8773 1.31241 10.1686 0.989346 9.38868C0.66628 8.60873 0.5 7.77278 0.5 6.92857C0.5 6.08436 0.66628 5.24841 0.989346 4.46846C1.31241 3.68851 1.78594 2.97983 2.38288 2.38288C2.97983 1.78594 3.68851 1.31241 4.46846 0.989346C5.24841 0.66628 6.08436 0.5 6.92857 0.5C8.63353 0.5 10.2687 1.17729 11.4743 2.38288C12.6798 3.58848 13.3571 5.22361 13.3571 6.92857C13.3571 8.63353 12.6798 10.2687 11.4743 11.4743C10.2687 12.6798 8.63353 13.3571 6.92857 13.3571Z" stroke="#C4BCA5"/>
</svg>
