<svg width="13" height="13" viewBox="0 0 13 13" fill="none" xmlns="http://www.w3.org/2000/svg">
<path d="M2.5 5C3.32843 5 4 4.32843 4 3.5C4 2.67157 3.32843 2 2.5 2C1.67157 2 1 2.67157 1 3.5C1 4.32843 1.67157 5 2.5 5Z" fill="#C4BCA5"/>
<path d="M6.5 5C7.32843 5 8 4.32843 8 3.5C8 2.67157 7.32843 2 6.5 2C5.67157 2 5 2.67157 5 3.5C5 4.32843 5.67157 5 6.5 5Z" fill="#C4BCA5"/>
<path d="M10.5 5C11.3284 5 12 4.32843 12 3.5C12 2.67157 11.3284 2 10.5 2C9.67157 2 9 2.67157 9 3.5C9 4.32843 9.67157 5 10.5 5Z" fill="#C4BCA5"/>
</svg>
